<svg xmlns="http://www.w3.org/2000/svg" xmlns:xlink="http://www.w3.org/1999/xlink" version="1.1" x="0px" y="0px" viewBox="0 0 100 125" enable-background="new 0 0 100 100" xml:space="preserve"><path fill="#000000" d="M48.4,48.4c0,1.1,0.9,2.1,2.1,2.1s2.1-0.9,2.1-2.1c0-2.4,0.9-4.8,2.4-6.6c3.5-4.1,6.1-8.5,7.7-13.2  c0.2-0.6,0.1-1.3-0.3-1.9c-0.4-0.5-1-0.9-1.7-0.9H40.3c-0.7,0-1.3,0.3-1.7,0.9c-0.4,0.5-0.5,1.2-0.3,1.9c1.6,4.7,4.2,9.1,7.7,13.2  C47.6,43.7,48.4,46,48.4,48.4z"/><path fill="#000000" d="M52.6,56.7c0-1.1-0.9-2.1-2.1-2.1s-2.1,0.9-2.1,2.1c0,3-1.8,5.9-5,8.3c-6.9,5.1-12.1,10.6-15.3,16.4  c-0.4,0.6-0.4,1.4,0,2c0.4,0.6,1,1,1.8,1h41.2c0.7,0,1.4-0.4,1.8-1c0.4-0.6,0.4-1.4,0-2c-3.3-5.8-8.4-11.3-15.3-16.4  C54.3,62.6,52.6,59.7,52.6,56.7z"/><path fill="#000000" d="M86.6,87.6h-1.2c-1.4-16-10.8-28.3-18.1-37.1c7.3-8.7,16.7-21.1,18.1-37.1h1.2c2.3,0,4.1-1.8,4.1-4.1  c0-2.3-1.8-4.1-4.1-4.1H14.4c-2.3,0-4.1,1.8-4.1,4.1c0,2.3,1.8,4.1,4.1,4.1h1.2c1.4,16,10.8,28.4,18.1,37.1  c-7.3,8.7-16.7,21.1-18.1,37.1h-1.2c-2.3,0-4.1,1.8-4.1,4.1c0,2.3,1.8,4.1,4.1,4.1h5.2h61.8h5.2c2.3,0,4.1-1.8,4.1-4.1  C90.7,89.4,88.8,87.6,86.6,87.6z M23.9,87.6c1.5-14.5,11-25.6,18-34l0.4-0.4c1.3-1.5,1.3-3.8,0-5.3l-0.4-0.4c-7-8.3-16.5-19.5-18-34  h53.1c-1.5,14.5-11,25.6-18,34l-0.4,0.4c-1.3,1.5-1.3,3.8,0,5.3l0.4,0.4c7,8.3,16.5,19.5,18,34C77.1,87.6,23.9,87.6,23.9,87.6z"/><text x="0" y="115" fill="#000000" font-size="5px" font-weight="bold" font-family="'Helvetica Neue', Helvetica, Arial-Unicode, Arial, Sans-serif">Created by riyazali</text><text x="0" y="120" fill="#000000" font-size="5px" font-weight="bold" font-family="'Helvetica Neue', Helvetica, Arial-Unicode, Arial, Sans-serif">from the Noun Project</text></svg>