<svg xmlns="http://www.w3.org/2000/svg" xmlns:xlink="http://www.w3.org/1999/xlink" version="1.1" x="0px" y="0px" viewBox="0 0 100 125" enable-background="new 0 0 100 100" xml:space="preserve"><path d="M45.304,44.697L50,49.393l4.697-4.696c1.568-1.568,2.96-3.125,4.196-4.697H41.107  C42.344,41.571,43.735,43.128,45.304,44.697z"/><path d="M67.5,87.5c0-3.355-0.221-6.395-0.673-9.255l-16.828-12.62L33.173,78.244C32.721,81.103,32.5,84.142,32.5,87.5H67.5z"/><path d="M75,12.5V10h5V5H20v5h5l0,2.5C25,30,30.571,40.569,40.001,50c-0.001,0-0.001,0.001,0,0.001c0,0,0,0-0.001,0  C30.504,59.497,25.001,70,25.001,87.5l0,2.5h-5v5h60v-5h-4.999v-2.498C75.001,70,69.431,59.431,60,50c0.001,0,0.001,0,0.001,0  C69.497,40.503,75,30,75,12.5z M56.465,53.536c7.059,7.059,11.039,14.247,12.662,23.309c0.587,3.28,0.874,6.8,0.874,10.656V90H30  l0-2.5c0-3.856,0.287-7.376,0.874-10.656c1.623-9.062,5.603-16.249,12.661-23.307L47.072,50l-3.536-3.536  C33.922,36.849,30,27.009,30,12.5l0-2.5h40v2.5c0,14.511-3.922,24.351-13.535,33.965L52.929,50L56.465,53.536z"/><text x="0" y="115" fill="#000000" font-size="5px" font-weight="bold" font-family="'Helvetica Neue', Helvetica, Arial-Unicode, Arial, Sans-serif">Created by Arthur Shlain</text><text x="0" y="120" fill="#000000" font-size="5px" font-weight="bold" font-family="'Helvetica Neue', Helvetica, Arial-Unicode, Arial, Sans-serif">from the Noun Project</text></svg>