<svg xmlns="http://www.w3.org/2000/svg" xmlns:xlink="http://www.w3.org/1999/xlink" version="1.1" x="0px" y="0px" viewBox="0 0 100 125" enable-background="new 0 0 100 100" xml:space="preserve"><path d="M68.7,20.8h-0.8L64,14.5c-0.4-0.6-1-1-1.7-1H33.7c-0.7,0-1.4,0.4-1.8,1l-3.7,6.3h-1.1c-1.1,0-2.1,0.9-2.1,2.1v6.8  c0,1.1,0.9,2.1,2.1,2.1h0.5L28.4,42c-0.1,0.1-0.2,0.2-0.3,0.3c-0.4,0.4-0.6,1-0.6,1.6l1.3,16.3c0.1,0.7,0.5,1.3,1.1,1.7l1.6,18.2  c0.3,3.8,3.4,6.7,7.3,6.7h18.1c3.8,0,7-2.9,7.3-6.6L65.8,62c0.6-0.3,1-0.9,1.1-1.7L68.2,44c0-0.6-0.1-1.1-0.5-1.5  c-0.1-0.1-0.2-0.2-0.3-0.3L68.2,32h0.5c1.1,0,2.1-0.9,2.1-2.1v-6.8C70.7,21.7,69.8,20.8,68.7,20.8z M66.3,27.5H29.4  c-0.1,0-0.2,0-0.3,0v-2.6h37.5v2.6C66.5,27.5,66.4,27.5,66.3,27.5z M34.9,17.7H42c0.2,0.9,1,1.6,2,1.6h7.4c1,0,1.8-0.7,2-1.6h7.8  l1.9,3.1H33L34.9,17.7z M63.9,46.8L63,57H32.7l-0.8-10.3L63.9,46.8L63.9,46.8z M56.9,82.5H38.8c-1.7,0-3.1-1.3-3.2-2.9L34,61.1h27.7  l-1.6,18.5C60,81.2,58.6,82.5,56.9,82.5z M63.2,42.7H32.5l-0.9-10.9H64L63.2,42.7z"/><text x="0" y="115" fill="#000000" font-size="5px" font-weight="bold" font-family="'Helvetica Neue', Helvetica, Arial-Unicode, Arial, Sans-serif">Created by Ryan Beck</text><text x="0" y="120" fill="#000000" font-size="5px" font-weight="bold" font-family="'Helvetica Neue', Helvetica, Arial-Unicode, Arial, Sans-serif">from the Noun Project</text></svg>