<svg xmlns="http://www.w3.org/2000/svg" xmlns:xlink="http://www.w3.org/1999/xlink" version="1.1" x="0px" y="0px" viewBox="0 0 100 125" enable-background="new 0 0 100 100" xml:space="preserve"><g><path d="M62.148,75.763c0-2.082-0.511-3.611-1.004-5.091c-0.449-1.347-0.871-2.618-0.871-4.289c0-1.871,0.429-4.75,0.883-7.798   c0.486-3.271,0.992-6.655,0.992-9.085c0-4.269-1.274-7.517-2.621-10.957c-1.479-3.77-3.007-7.669-3.007-13.43   c0-0.419,0.171-0.932,0.351-1.474c0.432-1.292,1.084-3.246-0.723-5.052c-0.239-0.239-0.562-0.372-0.898-0.372h-7.504   c-0.338,0-0.66,0.133-0.898,0.372c-1.807,1.806-1.154,3.759-0.725,5.052c0.182,0.542,0.352,1.055,0.352,1.474   c0,5.761-1.527,9.66-3.006,13.43c-1.348,3.44-2.621,6.688-2.621,10.957c0,2.43,0.506,5.813,0.992,9.085   c0.455,3.048,0.883,5.927,0.883,7.798c0,1.67-0.424,2.942-0.871,4.288c-0.494,1.479-1.004,3.01-1.004,5.092   c0,1.033,0,2.596,1.791,3.669c1.559,0.937,4.292,1.353,8.859,1.353c4.568,0,7.301-0.416,8.86-1.353   C62.148,78.358,62.148,76.796,62.148,75.763z M58.734,71.476c0.449,1.347,0.873,2.618,0.873,4.288c0,0.966-0.045,1.181-0.557,1.488   c-1.096,0.658-3.637,0.991-7.553,0.991s-6.457-0.333-7.554-0.991c-0.511-0.308-0.556-0.522-0.556-1.489   c0-1.67,0.424-2.941,0.873-4.287c0.493-1.48,1.004-3.011,1.004-5.093c0-2.06-0.443-5.028-0.912-8.172   c-0.475-3.181-0.965-6.469-0.965-8.711c0-3.788,1.134-6.68,2.447-10.03c1.491-3.804,3.181-8.116,3.181-14.357   c0-0.831-0.257-1.6-0.482-2.278c-0.218-0.657-0.353-1.106-0.353-1.472c0-0.225,0.059-0.418,0.172-0.606h6.289   c0.112,0.188,0.17,0.382,0.17,0.606c0,0.365-0.133,0.815-0.352,1.472c-0.226,0.678-0.482,1.447-0.482,2.278   c0,6.241,1.689,10.553,3.182,14.357c1.313,3.35,2.447,6.242,2.447,10.03c0,2.242-0.49,5.53-0.965,8.711   c-0.469,3.144-0.911,6.112-0.911,8.172C57.731,68.466,58.242,69.996,58.734,71.476z"/></g><text x="0" y="115" fill="#000000" font-size="5px" font-weight="bold" font-family="'Helvetica Neue', Helvetica, Arial-Unicode, Arial, Sans-serif">Created by Olivier Guin</text><text x="0" y="120" fill="#000000" font-size="5px" font-weight="bold" font-family="'Helvetica Neue', Helvetica, Arial-Unicode, Arial, Sans-serif">from the Noun Project</text></svg>