<svg xmlns="http://www.w3.org/2000/svg" xmlns:xlink="http://www.w3.org/1999/xlink" version="1.1" x="0px" y="0px" viewBox="0 0 100 125" enable-background="new 0 0 100 100" xml:space="preserve"><path fill-rule="evenodd" clip-rule="evenodd" d="M100,49.666c0,13.657-4.907,25.305-14.72,34.946  c-9.814,9.676-21.564,14.514-35.254,14.514c-13.69,0-25.426-4.753-35.204-14.256C4.941,75.296,0,63.682,0,50.026  c0-13.655,4.941-25.287,14.822-34.895C24.601,5.627,36.336,0.877,50.026,0.875c13.689,0,25.406,4.684,35.151,14.05  C95.059,24.431,100,36.011,100,49.666z M95.119,49.388c0-12.123-4.478-22.514-13.431-31.174C72.8,9.652,62.278,5.373,50.122,5.371  l-4.901,10.048l5.343,1.078l4.166-4.166l7.353,0.49l1.471,3.921l-4.411,4.411v2.647l2.745,0.539l1.274-2.059l4.853-3.039  l-0.147,2.059l1.813,3.137l-2.156,2.254l1.372,1.324l-3.235,0.196l1.324,2.647l-7.01,3.333l1.078,3.971h-2.206l-0.979-3.921  l-5.146-0.098l-0.932,1.52l-2.107-0.98l-3.432,3.431l2.745,3.284l-0.098,3.627l2.892,2.157l16.861,1.912l5.343,3.774l-0.638,9.362  L61.739,73.846c-0.752,0.753-1.487,2.844-2.206,6.275c-0.687,3.234-0.931,5.538-0.734,6.91l-1.765,2.01  c-1.373-2.712-3.154-6.879-5.344-12.499c-0.523-1.927-0.979-4.378-1.372-7.353c-0.294-2.45-0.588-4.916-0.882-7.4l-7.353-6.471  l6.52-7.695l-2.696-3.873c-4.151-0.849-6.847-1.601-8.088-2.254c-1.242-0.687-3.382-2.564-6.421-5.637l2.549,4.95l-1.716,0.735  l-3.97-7.451l0.784-6.96l-1.226-4.902l-3.823-3.725l-2.794-0.686l-2.451,1.715l-2.695,0.687C8.638,28.786,4.93,38.621,4.93,49.73  c0,12.418,4.443,22.957,13.333,31.615c8.789,8.562,19.408,12.84,31.859,12.842c12.45,0,23.053-4.362,31.812-13.088  C90.723,72.376,95.117,61.805,95.119,49.388z"/><text x="0" y="115" fill="#000000" font-size="5px" font-weight="bold" font-family="'Helvetica Neue', Helvetica, Arial-Unicode, Arial, Sans-serif">Created by Mateo Zlatar</text><text x="0" y="120" fill="#000000" font-size="5px" font-weight="bold" font-family="'Helvetica Neue', Helvetica, Arial-Unicode, Arial, Sans-serif">from the Noun Project</text></svg>