<svg xmlns:sketch="http://www.bohemiancoding.com/sketch/ns" xmlns="http://www.w3.org/2000/svg" xmlns:xlink="http://www.w3.org/1999/xlink" version="1.1" x="0px" y="0px" viewBox="-31.5 -25.5 100 125" enable-background="new -31.5 -25.5 100 100" xml:space="preserve"><title>Oval 32</title><desc>Created with Sketch.</desc><g sketch:type="MSPage"><g transform="translate(-574.000000, -453.000000)" sketch:type="MSArtboardGroup"><g transform="translate(382.000000, 238.000000)" sketch:type="MSLayerGroup"><g transform="translate(0.000000, 213.000000)" sketch:type="MSShapeGroup"><path d="M192,33c0-5.637,2.556-10.834,6-16c8-12,1-18,8-12c9.5,9.5,3.219,22,9,22c5,0,4.494-9.51,4.494-9.51      c0.003-1.099,0.674-1.405,1.48-0.641c0,0,8.026,6.376,8.026,16.15c0,7.87-4.183,14.971-11,18l-1.904-2.175      c-2.815-3.217-7.379-3.216-10.193,0L204,51C197.183,47.971,192,41.304,192,33z M213.233,4.843      c1.542-0.267,5.037,1.332,6.839,4.112c2.516,4.016-3.46,5.817-4.377,1.399C214.779,5.935,211.691,5.11,213.233,4.843z"/></g></g></g></g><text x="-31.5" y="89.5" fill="#000000" font-size="5px" font-weight="bold" font-family="'Helvetica Neue', Helvetica, Arial-Unicode, Arial, Sans-serif">Created by Ludovic Riffault</text><text x="-31.5" y="94.5" fill="#000000" font-size="5px" font-weight="bold" font-family="'Helvetica Neue', Helvetica, Arial-Unicode, Arial, Sans-serif">from the Noun Project</text></svg>