<?xml version="1.0" encoding="iso-8859-1"?>
<!-- Generator: Adobe Illustrator 16.0.0, SVG Export Plug-In . SVG Version: 6.00 Build 0)  -->
<!DOCTYPE svg PUBLIC "-//W3C//DTD SVG 1.1//EN" "http://www.w3.org/Graphics/SVG/1.1/DTD/svg11.dtd">
<svg version="1.1" id="Capa_1" xmlns="http://www.w3.org/2000/svg" xmlns:xlink="http://www.w3.org/1999/xlink" x="0px" y="0px"
	 width="778.48px" height="778.48px" viewBox="0 0 778.48 778.48" style="enable-background:new 0 0 778.48 778.48;"
	 xml:space="preserve">
<g>
	<g id="Shape_14">
		<g>
			<path d="M614.919,613.307c22.497,0,44.103-9.566,59.28-26.264c15.179-16.686,22.736-39.156,20.728-61.691L653.561,62.545
				C650.372,26.891,621.108,0,585.467,0H193.001c-35.629,0-64.893,26.891-68.081,62.545l-41.366,462.82
				c-2.009,22.521,5.536,44.992,20.714,61.689c15.178,16.686,36.783,26.264,59.28,26.264h57.937v26.553l-86.937,124.223
				l20.35,14.387l91.469-130.688V613.33H544.93v34.463l91.47,130.688l20.35-14.387l-86.937-124.223v-26.553h45.106V613.307z
				 M163.562,588.311c-15.755,0-30.293-6.428-40.927-18.129c-10.633-11.688-15.705-26.803-14.299-42.57l41.366-462.832
				c2.021-22.685,20.639-39.784,43.299-39.784h392.479c22.66,0,41.278,17.099,43.3,39.784l41.353,462.82
				c1.406,15.754-3.666,30.883-14.299,42.57c-10.634,11.701-25.171,18.129-40.927,18.129H163.562V588.311z M623.996,403.352H474.929
				v95.197h149.067V403.352z M599.113,473.541h-99.303v-45.195h99.303V473.541z M156.694,498.549h149.067v-95.197H156.694V498.549z
				 M181.577,428.346h99.303v45.195h-99.303V428.346z M596.276,130.236c0-35.578-28.799-64.503-64.189-64.503H240.844
				c-35.39,0-64.189,28.937-64.189,64.503v226.627l209.804,45.006l209.804-45.006V130.236H596.276z M571.394,336.664
				l-184.921,39.658l-184.935-39.658V130.236c0-21.781,17.639-39.508,39.307-39.508h291.243c21.669,0,39.307,17.727,39.307,39.508
				V336.664z M296.146,643.812v24.994h211.474v-24.994H296.146z M246.381,718.811h311.003v-25.008H246.381V718.811z"/>
		</g>
	</g>
</g>
<g>
</g>
<g>
</g>
<g>
</g>
<g>
</g>
<g>
</g>
<g>
</g>
<g>
</g>
<g>
</g>
<g>
</g>
<g>
</g>
<g>
</g>
<g>
</g>
<g>
</g>
<g>
</g>
<g>
</g>
</svg>
